<?xml version="1.0" encoding="UTF-8" standalone="no"?>
<svg
   xmlns:dc="http://purl.org/dc/elements/1.1/"
   xmlns:cc="http://creativecommons.org/ns#"
   xmlns:rdf="http://www.w3.org/1999/02/22-rdf-syntax-ns#"
   xmlns:svg="http://www.w3.org/2000/svg"
   xmlns="http://www.w3.org/2000/svg"
   xmlns:xlink="http://www.w3.org/1999/xlink"
   id="svg8"
   version="1.1"
   viewBox="0 0 12.7 12.7"
   height="48"
   width="48">
  <defs
     id="defs2">
    <linearGradient
       id="linearGradient4547">
      <stop
         id="stop4543"
         offset="0"
         style="stop-color:#455a64;stop-opacity:1;" />
      <stop
         id="stop4545"
         offset="1"
         style="stop-color:#455a64;stop-opacity:0;" />
    </linearGradient>
    <linearGradient
       gradientUnits="userSpaceOnUse"
       y2="33.809689"
       x2="57.47728"
       y1="33.809689"
       x1="17.825809"
       id="linearGradient6013"
       xlink:href="#linearGradient4547" />
  </defs>
  <metadata
     id="metadata5">
    <rdf:RDF>
      <cc:Work
         rdf:about="">
        <dc:format>image/svg+xml</dc:format>
        <dc:type
           rdf:resource="http://purl.org/dc/dcmitype/StillImage" />
        <dc:title></dc:title>
      </cc:Work>
    </rdf:RDF>
  </metadata>
  <g
     transform="translate(-3.6285723,-2.5754457)"
     id="layer1">
    <g
       transform="matrix(0.52837921,0,0,0.52837921,3.6285723,2.5943449)"
       id="g3694"
       style="fill:#000000">
      <path
         style="fill:none"
         d="M 0,0 H 24 V 24 H 0 Z"
         id="path3680" />
      <path
         d="M 11.99,2 C 6.47,2 2,6.48 2,12 2,17.52 6.47,22 11.99,22 17.52,22 22,17.52 22,12 22,6.48 17.52,2 11.99,2 Z m 6.93,6 H 15.97 C 15.65,6.75 15.19,5.55 14.59,4.44 16.43,5.07 17.96,6.35 18.92,8 Z M 12,4.04 c 0.83,1.2 1.48,2.53 1.91,3.96 H 10.09 C 10.52,6.57 11.17,5.24 12,4.04 Z M 4.26,14 C 4.1,13.36 4,12.69 4,12 4,11.31 4.1,10.64 4.26,10 h 3.38 c -0.08,0.66 -0.14,1.32 -0.14,2 0,0.68 0.06,1.34 0.14,2 z m 0.82,2 h 2.95 c 0.32,1.25 0.78,2.45 1.38,3.56 C 7.57,18.93 6.04,17.66 5.08,16 Z M 8.03,8 H 5.08 C 6.04,6.34 7.57,5.07 9.41,4.44 8.81,5.55 8.35,6.75 8.03,8 Z M 12,19.96 C 11.17,18.76 10.52,17.43 10.09,16 h 3.82 C 13.48,17.43 12.83,18.76 12,19.96 Z M 14.34,14 H 9.66 C 9.57,13.34 9.5,12.68 9.5,12 c 0,-0.68 0.07,-1.35 0.16,-2 h 4.68 c 0.09,0.65 0.16,1.32 0.16,2 0,0.68 -0.07,1.34 -0.16,2 z m 0.25,5.56 c 0.6,-1.11 1.06,-2.31 1.38,-3.56 h 2.95 c -0.96,1.65 -2.49,2.93 -4.33,3.56 z M 16.36,14 c 0.08,-0.66 0.14,-1.32 0.14,-2 0,-0.68 -0.06,-1.34 -0.14,-2 h 3.38 c 0.16,0.64 0.26,1.31 0.26,2 0,0.69 -0.1,1.36 -0.26,2 z"
         id="path3682" />
    </g>
    <path
       transform="scale(0.26458333)"
       id="path4523"
       d="M 35.997195,53.597833 C 27.080141,52.865807 19.737157,46.168759 18.073629,37.250939 c -0.351783,-1.885832 -0.325321,-5.321321 0.05566,-7.226096 0.784357,-3.921529 2.628184,-7.409665 5.390908,-10.198473 2.542845,-2.566854 5.433526,-4.280862 8.815578,-5.227132 1.856942,-0.519557 3.30363,-0.70304 5.452826,-0.691578 3.201809,0.01707 5.75274,0.609841 8.586297,1.995223 5.611717,2.743676 9.422265,7.6459 10.826901,13.928674 0.236379,1.0573 0.275482,1.617534 0.275482,3.946983 0,2.988063 -0.145083,3.967706 -0.938193,6.334981 -2.234918,6.670786 -7.974102,11.730173 -14.932698,13.163945 -0.914697,0.188467 -3.628564,0.467572 -4.196596,0.431594 -0.138896,-0.0088 -0.774564,-0.05885 -1.412597,-0.111227 z m 2.374482,-4.887976 c 0.826517,-1.261582 2.131134,-3.920965 2.697638,-5.498969 0.244322,-0.680563 0.444222,-1.29139 0.444222,-1.357392 0,-0.07321 -1.501945,-0.120005 -3.851207,-0.120005 -2.118163,0 -3.851206,0.02388 -3.851206,0.05307 0,0.175782 0.869197,2.466273 1.332077,3.510262 0.674955,1.522309 2.328137,4.391615 2.530276,4.391615 0.0314,0 0.345588,-0.440363 0.6982,-0.978585 z m -5.823244,0.155033 c 0,-0.03627 -0.23468,-0.532694 -0.521511,-1.103173 -0.673825,-1.340169 -1.31357,-2.977726 -1.812426,-4.639266 l -0.398063,-1.325825 -2.990283,-0.03385 c -1.644655,-0.01862 -2.990283,-0.0018 -2.990283,0.03727 0,0.237886 1.459229,2.164398 2.313082,3.05379 1.525956,1.589471 3.134717,2.715853 5.124196,3.587732 1.103952,0.483802 1.275288,0.540676 1.275288,0.423326 z m 11.943303,-0.623765 c 1.706208,-0.799148 2.990737,-1.719659 4.483103,-3.21265 1.175222,-1.175714 2.243105,-2.518752 2.467328,-3.103068 0.0646,-0.168353 -0.290685,-0.191916 -2.893822,-0.191916 H 45.58088 l -0.530796,1.673065 c -0.540334,1.703129 -1.249987,3.482915 -1.917506,4.809044 -0.36972,0.734504 -0.369975,0.736588 -0.07952,0.64988 0.160262,-0.04784 0.807668,-0.328802 1.438682,-0.624355 z M 28.921152,36.77743 c -0.125724,-1.341124 -0.12563,-4.657594 1.64e-4,-5.999816 l 0.09783,-1.043754 -3.438838,0.0336 -3.438837,0.0336 -0.167894,0.757615 c -0.38686,1.745693 -0.334706,5.14087 0.104255,6.786962 l 0.12627,0.473509 h 3.407352 3.407353 l -0.09766,-1.04172 z m 13.526311,0.625156 c 0.313849,-1.672956 0.315265,-5.821639 0.0025,-7.317416 l -0.07261,-0.34724 H 37.661382 32.94541 l -0.103787,0.726047 c -0.134796,0.942961 -0.134134,5.40363 0.001,6.502857 l 0.104753,0.852316 h 4.710987 4.710987 l 0.07815,-0.416564 z m 10.995579,-0.864707 c 0.29079,-1.655457 0.29079,-3.863221 0,-5.518678 L 53.21798,29.73793 h -3.448358 -3.448359 l 0.08995,0.852316 c 0.04947,0.468774 0.08995,1.903506 0.08995,3.188294 0,1.284788 -0.04048,2.71952 -0.08995,3.188294 l -0.08995,0.852316 h 3.448359 3.448358 z M 29.822545,25.665752 c 0.43354,-1.551459 1.391335,-4.159584 1.977709,-5.385401 0.41254,-0.862415 0.728623,-1.589476 0.702408,-1.615692 -0.06712,-0.06712 -1.196711,0.389117 -2.132146,0.861159 -1.424634,0.718903 -2.662573,1.644055 -4.01801,3.002787 -1.107829,1.110523 -2.516639,2.911541 -2.516639,3.217263 0,0.04275 1.337079,0.07772 2.971286,0.07772 2.269327,0 2.981706,-0.03729 3.015392,-0.157836 z m 11.631493,-0.189403 c -0.189226,-0.756322 -1.015459,-2.812459 -1.610985,-4.009043 -0.740159,-1.487195 -2.000991,-3.598669 -2.148885,-3.598669 -0.188555,0 -1.35493,1.931358 -2.17329,3.598669 -0.630505,1.284579 -1.709754,4.00226 -1.709754,4.305368 0,0.028 1.739202,0.05091 3.864895,0.05091 h 3.864896 z m 9.984609,0.14615 c -0.193778,-0.504977 -1.479243,-2.192013 -2.30758,-3.028454 -1.499974,-1.514647 -3.173925,-2.67452 -5.029014,-3.484583 -1.432486,-0.625523 -1.398708,-0.674596 -0.640535,0.930577 0.700967,1.484061 1.390024,3.297826 1.84941,4.868099 l 0.267816,0.91545 h 2.968534 c 2.663489,0 2.960605,-0.02066 2.891369,-0.201089 z"
       style="fill:url(#linearGradient6013);fill-opacity:1;fill-rule:nonzero;stroke:none;stroke-width:0.12626907;stroke-opacity:1" />
  </g>
</svg>
